name ./resultDataOpenSim/trcMotMarkerGrf/sub09/grf-13-05.mot
datacolumns 19
datarows 27
range 1.00800000 1.11200000
endheader

                time	     ground_force_vx	     ground_force_vy	     ground_force_vz	     ground_force_px	     ground_force_py	     ground_force_pz	   l_ground_force_vx	   l_ground_force_vy	   l_ground_force_vz	   l_ground_force_px	   l_ground_force_py	   l_ground_force_pz	     ground_torque_x	     ground_torque_y	     ground_torque_z	   l_ground_torque_x	   l_ground_torque_y	   l_ground_torque_z	
          1.00800000	          0.00000000	          0.00000000	          0.00000000	          0.00000000	          0.00000000	          0.00000000	          3.21843032	        455.72991012	         11.70932641	          0.19796233	         -0.05000000	         -0.01071932	          0.00000000	          0.00000000	          0.00000000	          0.00000000	         -2.83118653	          0.00000000	
          1.01200000	          0.00000000	          0.00000000	          0.00000000	          0.00000000	          0.00000000	          0.00000000	          4.57610988	        460.77735951	         11.03695958	          0.19853970	         -0.05000000	         -0.01019623	          0.00000000	          0.00000000	          0.00000000	          0.00000000	         -3.08674241	          0.00000000	
          1.01600000	          0.00000000	          0.00000000	          0.00000000	          0.00000000	          0.00000000	          0.00000000	          6.21572500	        466.01193546	         10.59439915	          0.19900759	         -0.05000000	         -0.00973366	          0.00000000	          0.00000000	          0.00000000	          0.00000000	         -3.33642113	          0.00000000	
          1.02000000	          0.00000000	          0.00000000	          0.00000000	          0.00000000	          0.00000000	          0.00000000	          8.11674341	        471.46913775	         10.40622127	          0.19937238	         -0.05000000	         -0.00932449	          0.00000000	          0.00000000	          0.00000000	          0.00000000	         -3.58222965	          0.00000000	
          1.02400000	          0.00000000	          0.00000000	          0.00000000	          0.00000000	          0.00000000	          0.00000000	         10.29956481	        477.18663917	         10.44832842	          0.19967428	         -0.05000000	         -0.00894535	          0.00000000	          0.00000000	          0.00000000	          0.00000000	         -3.82838310	          0.00000000	
          1.02800000	          0.00000000	          0.00000000	          0.00000000	          0.00000000	          0.00000000	          0.00000000	         12.84048354	        483.13230217	         10.63572220	          0.19992977	         -0.05000000	         -0.00858571	          0.00000000	          0.00000000	          0.00000000	          0.00000000	         -4.08007201	          0.00000000	
          1.03200000	          0.00000000	          0.00000000	          0.00000000	          0.00000000	          0.00000000	          0.00000000	         15.83470801	        489.21296188	         10.85935157	          0.20011890	         -0.05000000	         -0.00826258	          0.00000000	          0.00000000	          0.00000000	          0.00000000	         -4.34207537	          0.00000000	
          1.03600000	          0.00000000	          0.00000000	          0.00000000	          0.00000000	          0.00000000	          0.00000000	         19.34126016	        495.37926439	         11.05224076	          0.20022882	         -0.05000000	         -0.00798461	          0.00000000	          0.00000000	          0.00000000	          0.00000000	         -4.61764769	          0.00000000	
          1.04000000	          0.00000000	          0.00000000	          0.00000000	          0.00000000	          0.00000000	          0.00000000	         23.36088784	        501.69096746	         11.21811944	          0.20027409	         -0.05000000	         -0.00773049	          0.00000000	          0.00000000	          0.00000000	          0.00000000	         -4.90798402	          0.00000000	
          1.04400000	          0.00000000	          0.00000000	          0.00000000	          0.00000000	          0.00000000	          0.00000000	         27.85191302	        508.26005195	         11.40016885	          0.20028671	         -0.05000000	         -0.00747289	          0.00000000	          0.00000000	          0.00000000	          0.00000000	         -5.21224526	          0.00000000	
          1.04800000	          0.00000000	          0.00000000	          0.00000000	          0.00000000	          0.00000000	          0.00000000	         32.75168313	        515.16165000	         11.62953095	          0.20031782	         -0.05000043	         -0.00720651	          0.00000000	          0.00000000	          0.00000000	          0.00000000	         -5.52780903	          0.00000000	
          1.05200000	          0.00000000	          0.00000000	          0.00000000	          0.00000000	          0.00000000	          0.00000000	         37.99207730	        522.42199935	         11.89955643	          0.20041845	         -0.05000091	         -0.00694194	          0.00000000	          0.00000000	          0.00000000	          0.00000000	         -5.85038619	          0.00000000	
          1.05600000	          0.00000000	          0.00000000	          0.00000000	          0.00000000	          0.00000000	          0.00000000	         43.51496573	        530.06506924	         12.18412036	          0.20061496	         -0.05000100	         -0.00668491	          0.00000000	          0.00000000	          0.00000000	          0.00000000	         -6.17397159	          0.00000000	
          1.06000000	          0.00000000	          0.00000000	          0.00000000	          0.00000000	          0.00000000	          0.00000000	         49.28013729	        538.14063482	         12.47559980	          0.20091561	         -0.05000100	         -0.00643620	          0.00000000	          0.00000000	          0.00000000	          0.00000000	         -6.49098263	          0.00000000	
          1.06400000	          0.00000000	          0.00000000	          0.00000000	          0.00000000	          0.00000000	          0.00000000	         55.25606889	        546.72263871	         12.79625689	          0.20131440	         -0.05000100	         -0.00619849	          0.00000000	          0.00000000	          0.00000000	          0.00000000	         -6.79296732	          0.00000000	
          1.06800000	          0.00000000	          0.00000000	          0.00000000	          0.00000000	          0.00000000	          0.00000000	         61.40654641	        555.89298757	         13.17260296	          0.20178015	         -0.05000100	         -0.00597424	          0.00000000	          0.00000000	          0.00000000	          0.00000000	         -7.07185734	          0.00000000	
          1.07200000	          0.00000000	          0.00000000	          0.00000000	          0.00000000	          0.00000000	          0.00000000	         67.69408374	        565.71524032	         13.60819550	          0.20226594	         -0.05000100	         -0.00577322	          0.00000000	          0.00000000	          0.00000000	          0.00000000	         -7.32129595	          0.00000000	
          1.07600000	          0.00000000	          0.00000000	          0.00000000	          0.00000000	          0.00000000	          0.00000000	         74.09047635	        576.22654491	         14.08440260	          0.20272036	         -0.05000100	         -0.00561422	          0.00000000	          0.00000000	          0.00000000	          0.00000000	         -7.53753563	          0.00000000	
          1.08000000	          0.00000000	          0.00000000	          0.00000000	          0.00000000	          0.00000000	          0.00000000	         80.57366135	        587.45583015	         14.57863285	          0.20309181	         -0.05000100	         -0.00550478	          0.00000000	          0.00000000	          0.00000000	          0.00000000	         -7.71975092	          0.00000000	
          1.08400000	          0.00000000	          0.00000000	          0.00000000	          0.00000000	          0.00000000	          0.00000000	         87.11894594	        599.43795703	         15.07581126	          0.20335160	         -0.05000100	         -0.00543491	          0.00000000	          0.00000000	          0.00000000	          0.00000000	         -7.86990083	          0.00000000	
          1.08800000	          0.00000000	          0.00000000	          0.00000000	          0.00000000	          0.00000000	          0.00000000	         93.69781268	        612.19510283	         15.56426093	          0.20350698	         -0.05000100	         -0.00537558	          0.00000000	          0.00000000	          0.00000000	          0.00000000	         -7.99222576	          0.00000000	
          1.09200000	          0.00000000	          0.00000000	          0.00000000	          0.00000000	          0.00000000	          0.00000000	        100.27836780	        625.67795472	         16.01897095	          0.20359148	         -0.05000100	         -0.00529694	          0.00000000	          0.00000000	          0.00000000	          0.00000000	         -8.09227706	          0.00000000	
          1.09600000	          0.00000000	          0.00000000	          0.00000000	          0.00000000	          0.00000000	          0.00000000	        106.81523847	        639.72794028	         16.39182378	          0.20367561	         -0.05000100	         -0.00517365	          0.00000000	          0.00000000	          0.00000000	          0.00000000	         -8.17539184	          0.00000000	
          1.10000000	          0.00000000	          0.00000000	          0.00000000	          0.00000000	          0.00000000	          0.00000000	        113.23296569	        654.12219062	         16.63176662	          0.20384072	         -0.05000100	         -0.00499914	          0.00000000	          0.00000000	          0.00000000	          0.00000000	         -8.24483851	          0.00000000	
          1.10400000	          0.00000000	          0.00000000	          0.00000000	          0.00000000	          0.00000000	          0.00000000	        119.43255446	        668.62893014	         16.71991079	          0.20415130	         -0.05000100	         -0.00478267	          0.00000000	          0.00000000	          0.00000000	          0.00000000	         -8.30028892	          0.00000000	
          1.10800000	          0.00000000	          0.00000000	          0.00000000	          0.00000000	          0.00000000	          0.00000000	        125.32713952	        683.00620513	         16.67910921	          0.20461706	         -0.05000100	         -0.00454184	          0.00000000	          0.00000000	          0.00000000	          0.00000000	         -8.33740726	          0.00000000	
          1.11200000	          0.00000000	          0.00000000	          0.00000000	          0.00000000	          0.00000000	          0.00000000	        130.87139911	        696.99492493	         16.54993018	          0.20521615	         -0.05000100	         -0.00428803	          0.00000000	          0.00000000	          0.00000000	          0.00000000	         -8.34887813	          0.00000000	
